<?xml version="1.0" encoding="UTF-8"?>
<svg version="1.1" xmlns="http://www.w3.org/2000/svg" width="1280" height="1280">
<path d="M0 0 C422.4 0 844.8 0 1280 0 C1280 422.4 1280 844.8 1280 1280 C857.6 1280 435.2 1280 0 1280 C0 857.6 0 435.2 0 0 Z " fill="#010005" transform="translate(0,0)"/>
<path d="M0 0 C13.01758659 6.62800196 19.08841366 16.23507221 24.19921875 29.62890625 C24.58460815 30.58470581 24.58460815 30.58470581 24.9777832 31.55981445 C30.59705872 45.78823102 30.5054338 61.17294712 30.57421875 76.25390625 C30.58198334 77.0272934 30.58974792 77.80068054 30.5977478 78.59750366 C30.7504711 97.92429141 28.47855315 117.86769857 18.19921875 134.62890625 C17.48851154 135.91926827 16.78001201 137.21084989 16.07421875 138.50390625 C13.8688115 142.17958499 11.95307149 144.05454226 8.57421875 146.62890625 C5.95971963 148.47746217 5.95971963 148.47746217 5.19921875 151.62890625 C3.87921875 151.62890625 2.55921875 151.62890625 1.19921875 151.62890625 C1.19921875 152.28890625 1.19921875 152.94890625 1.19921875 153.62890625 C-7.39423517 155.53856268 -17.96925953 156.23247902 -25.80078125 151.62890625 C-29.45969411 148.57209297 -32.84679684 145.37843135 -35.80078125 141.62890625 C-35.80078125 140.63890625 -35.80078125 139.64890625 -35.80078125 138.62890625 C-36.46078125 138.62890625 -37.12078125 138.62890625 -37.80078125 138.62890625 C-44.31814599 130.00916579 -46.48681724 119.99295591 -48.80078125 109.62890625 C-48.95611328 108.96552246 -49.11144531 108.30213867 -49.27148438 107.61865234 C-53.71084041 88.15563146 -53.67329818 66.18391411 -49.80078125 46.62890625 C-49.58292969 45.42621094 -49.36507812 44.22351563 -49.140625 42.984375 C-47.7413807 35.80464606 -45.74839784 29.30936517 -42.80078125 22.62890625 C-42.38828125 21.47390625 -41.97578125 20.31890625 -41.55078125 19.12890625 C-33.45776186 2.94286747 -18.02989544 -7.41122333 0 0 Z " fill="#F6F6F6" transform="translate(946.80078125,442.37109375)"/>
<path d="M0 0 C0.53681396 0.32307129 1.07362793 0.64614258 1.62670898 0.97900391 C6.60307024 4.20293506 9.34251115 7.92997179 12.3125 13 C12.74111328 13.69867188 13.16972656 14.39734375 13.61132812 15.1171875 C17.90827584 22.22290447 19.82475194 29.10722934 21.5625 37.1875 C21.78357422 38.17814453 22.00464844 39.16878906 22.23242188 40.18945312 C28.38701166 68.54519157 28.14996847 104.52357665 15 131 C12.94140625 133.32421875 12.94140625 133.32421875 11 135 C10.10392349 136.256061 9.22844719 137.52709335 8.375 138.8125 C4.31809215 144.3531363 -1.46215714 148.82071905 -8 151 C-12.33616313 151.20168201 -16.66150573 151.09801592 -21 151 C-21.76441406 151.00644531 -22.52882813 151.01289062 -23.31640625 151.01953125 C-29.56382816 150.75448911 -33.67779523 147.15357666 -38 143 C-39.75 140.5 -39.75 140.5 -41 138 C-42.16402344 136.45505859 -42.16402344 136.45505859 -43.3515625 134.87890625 C-46.1703393 130.96540941 -47.92655455 126.93130359 -49.625 122.4375 C-50.05425781 121.37305664 -50.05425781 121.37305664 -50.4921875 120.28710938 C-55.97147967 106.07830853 -56.53162171 92.36229002 -56.50097656 77.30786133 C-56.50000884 73.96802221 -56.54165022 70.63052227 -56.5859375 67.29101562 C-56.71439859 44.44797122 -53.14605813 21.20479028 -37.3125 3.6875 C-27.34373188 -5.77150157 -11.64213344 -7.22972344 0 0 Z " fill="#F5F5F6" transform="translate(832,445)"/>
<path d="M0 0 C10.23 0 20.46 0 31 0 C31 0.66 31 1.32 31 2 C31.90878906 2.02126953 31.90878906 2.02126953 32.8359375 2.04296875 C39.85473422 2.44250026 44.94264262 4.50735351 51 8 C51 8.66 51 9.32 51 10 C52.051875 10.0309375 52.051875 10.0309375 53.125 10.0625 C57.28624038 11.41942621 59.75775517 14.2783359 62 18 C62 19.32 62 20.64 62 22 C62.66 22 63.32 22 64 22 C64.67305018 23.60149886 65.33822227 25.20631029 66 26.8125 C66.37125 27.70582031 66.7425 28.59914063 67.125 29.51953125 C68 32 68 32 68 35 C68.66 35 69.32 35 70 35 C75.7403475 58.03792795 76.77968003 80.70754082 73.25 104.25 C73.09321777 105.31379883 72.93643555 106.37759766 72.77490234 107.47363281 C71.86487367 112.90937456 70.64596241 117.48790661 67.90576172 122.29077148 C66.78103291 124.27617121 66.78103291 124.27617121 65.875 127.8125 C63.46756129 134.5533284 57.32413658 141.02717673 51.2421875 144.63671875 C48.68796415 145.85890422 48.68796415 145.85890422 48 149 C33.13254114 155.36872521 15.32693035 153 0 153 C0 102.51 0 52.02 0 0 Z " fill="#F6F6F7" transform="translate(1019,442)"/>
<path d="M0 0 C6.93 0 13.86 0 21 0 C23.24183486 6.72550459 23.24183486 6.72550459 23.640625 10.1953125 C23.73843262 10.97801514 23.83624023 11.76071777 23.93701172 12.56713867 C24.09194092 13.83328003 24.09194092 13.83328003 24.25 15.125 C25.36503351 23.59401629 26.99358949 31.85774013 28.875 40.1875 C31.31448487 51.09616866 33.20904191 62.00442281 34.8125 73.0625 C34.91745789 73.78102142 35.02241577 74.49954285 35.1305542 75.23983765 C36.32496884 83.47392368 37.36236666 91.70198672 38 100 C38.66 100 39.32 100 40 100 C40.09539063 98.865625 40.19078125 97.73125 40.2890625 96.5625 C41.13551068 88.95931638 42.83421003 81.48633311 44.375 74 C47.57601446 58.38323644 50.42332062 42.73290114 53 27 C53.66 27 54.32 27 55 27 C55.13277344 25.71222656 55.26554688 24.42445313 55.40234375 23.09765625 C55.94899522 18.17779302 56.7235193 13.31482797 57.5625 8.4375 C57.77036133 7.21063477 57.77036133 7.21063477 57.98242188 5.95898438 C58.3193499 3.97227085 58.65934584 1.98607801 59 0 C61.47923801 -0.02685095 63.9581884 -0.04676547 66.4375 -0.0625 C67.14455078 -0.07087891 67.85160156 -0.07925781 68.58007812 -0.08789062 C70.38693559 -0.09653588 72.19387603 -0.05220011 74 0 C75.65632428 1.65632428 75.44902928 3.77813221 75.75 6.0625 C76.71139208 12.64767432 78.04300618 19.11890303 79.4375 25.625 C81.18006106 33.78372782 82.6852966 41.92340546 83.90161133 50.17578125 C84.85062958 56.44965952 86.15848388 62.60855817 87.64282227 68.77685547 C88.67945508 73.1661458 89.33640297 77.47731097 89.78515625 81.96484375 C90.43704432 88.14000168 91.85455181 94.17664062 94 100 C95.41891665 93.96535197 96.5318521 87.94343101 97.4375 81.8125 C98.29779257 76.16353807 99.24796873 70.57842205 100.5 65 C101.91032187 58.712315 102.90938313 52.40340891 103.87280273 46.03613281 C104.61208804 41.23005307 105.49396554 36.49665558 106.5625 31.75 C107.90028003 25.78573069 108.75829903 19.83425971 109.47265625 13.765625 C110.11966928 9.1454727 111.08507182 4.57464092 112 0 C118.93 0 125.86 0 133 0 C133 5.51330367 132.5368084 9.7399616 131.1875 14.9375 C129.75552214 20.70527647 128.4821313 26.46199892 127.4375 32.3125 C126.61370064 36.90136754 125.68614808 41.4264498 124.5 45.9375 C123.2186383 50.82269149 122.3273644 55.71091662 121.5 60.6875 C120.62114328 65.95085606 119.52621968 70.91345684 117.68359375 75.92578125 C116.28680232 80.16404554 115.73374076 84.60850682 115 89 C113.44886295 97.83961233 111.67099602 106.53269917 109.40844727 115.21850586 C108.38680049 119.21755117 107.61598665 123.16150899 107.0625 127.25 C105.81175791 136.32648618 103.31234359 145.14778388 101 154 C96.38 154 91.76 154 87 154 C84.31826843 143.79054066 82.03182069 133.58212884 80.18969727 123.18823242 C79.80809534 121.03767713 79.41732145 118.88892892 79.02539062 116.74023438 C76.97831446 105.40186721 76.97831446 105.40186721 76.51171875 100.05859375 C76.14937374 96.28620434 75.0692866 93.04263852 73.79785156 89.48632812 C72.20387771 84.51906077 71.3514658 79.36740412 70.375 74.25 C70.1584375 73.14011719 69.941875 72.03023437 69.71875 70.88671875 C69.31810878 68.83157765 68.91985744 66.77596799 68.52490234 64.71972656 C68.02781781 62.14413506 67.51747035 59.5715645 67 57 C66.3120592 59.328415 65.65206993 61.66140351 65 64 C64.77054688 64.77988281 64.54109375 65.55976563 64.3046875 66.36328125 C62.10101254 74.37769914 61.02184261 82.46489192 60.00219727 90.69750977 C59.88545654 91.62619873 59.76871582 92.5548877 59.6484375 93.51171875 C59.54708496 94.35178467 59.44573242 95.19185059 59.34130859 96.05737305 C59 98 59 98 58 99 C57.76924918 100.34747084 57.58846937 101.70377565 57.4375 103.0625 C57.293125 104.361875 57.14875 105.66125 57 107 C56.34 107 55.68 107 55 107 C54.87496094 108.27488281 54.74992188 109.54976562 54.62109375 110.86328125 C54.04615831 116.0336585 53.08378752 121.08955346 52.0625 126.1875 C50.62146843 133.53669614 49.35798164 140.85668362 48.39453125 148.28515625 C48 151 48 151 47 155 C42.05 155 37.1 155 32 155 C31.69707031 153.38996094 31.39414062 151.77992188 31.08203125 150.12109375 C27.62283469 131.85848871 23.88565914 113.68863708 19.5 95.625 C16.63897111 83.82199412 14.32507697 71.91797005 12 60 C11.31654307 56.52002418 10.62887195 53.04091167 9.9375 49.5625 C9.77918701 48.76392578 9.62087402 47.96535156 9.45776367 47.14257812 C8.15209366 40.61890311 6.72094579 34.12590235 5.21850586 27.64477539 C4.54363666 24.69311602 4 22.03930663 4 19 C3.34 19 2.68 19 2 19 C1.65477873 17.52356259 1.32462513 16.04360218 1 14.5625 C0.814375 13.73878906 0.62875 12.91507812 0.4375 12.06640625 C-0.130979 8.08197752 0 4.02477834 0 0 Z " fill="#F5F6F6" transform="translate(616,442)"/>
<path d="M0 0 C0.83265381 0.00523682 1.66530762 0.01047363 2.52319336 0.01586914 C3.42231445 0.0190918 4.32143555 0.02231445 5.24780273 0.02563477 C6.66609375 0.03820312 6.66609375 0.03820312 8.11303711 0.05102539 C9.06243164 0.05553711 10.01182617 0.06004883 10.98999023 0.06469727 C13.34356776 0.07652429 15.69702188 0.09300514 18.05053711 0.11352539 C19.8788598 6.72660745 21.30776462 13.33548853 22.36303711 20.11352539 C23.82747027 29.46723329 25.83437125 38.68902722 27.89355469 47.92797852 C29.58965846 55.62327433 30.94679707 63.31171971 32.05053711 71.11352539 C32.16308838 71.89268311 32.27563965 72.67184082 32.39160156 73.47460938 C32.66201057 75.37380834 32.91933695 77.27485754 33.17553711 79.17602539 C33.34311523 80.40450195 33.51069336 81.63297852 33.68334961 82.89868164 C34.05053711 86.11352539 34.05053711 86.11352539 34.05053711 90.11352539 C34.71053711 90.11352539 35.37053711 90.11352539 36.05053711 90.11352539 C36.72816451 93.94500374 37.39063478 97.7789578 38.05053711 101.61352539 C38.33670898 103.23000977 38.33670898 103.23000977 38.62866211 104.87915039 C39.62504476 110.71510593 40.28043792 116.19357941 40.05053711 122.11352539 C40.71053711 122.11352539 41.37053711 122.11352539 42.05053711 122.11352539 C43.3616115 128.09609783 44.3307973 133.97320791 44.80444336 140.08227539 C44.94285318 142.17848293 44.94285318 142.17848293 46.05053711 144.11352539 C46.05053711 147.08352539 46.05053711 150.05352539 46.05053711 153.11352539 C39.78053711 153.11352539 33.51053711 153.11352539 27.05053711 153.11352539 C24.08053711 136.77852539 24.08053711 136.77852539 21.05053711 120.11352539 C7.19053711 119.61852539 7.19053711 119.61852539 -6.94946289 119.11352539 C-7.21758789 121.75352539 -7.48571289 124.39352539 -7.76196289 127.11352539 C-8.6972431 135.89625191 -10.21746071 144.45351446 -11.94946289 153.11352539 C-18.54946289 153.11352539 -25.14946289 153.11352539 -31.94946289 153.11352539 C-31.45446289 149.15352539 -31.45446289 149.15352539 -30.94946289 145.11352539 C-30.28946289 145.11352539 -29.62946289 145.11352539 -28.94946289 145.11352539 C-28.90047852 144.12352539 -28.85149414 143.13352539 -28.80102539 142.11352539 C-28.13459076 129.91514307 -28.13459076 129.91514307 -26.47290039 124.19555664 C-25.81000407 121.55881233 -25.48600031 118.93533338 -25.13696289 116.23852539 C-23.73323107 105.95180312 -21.62928145 95.79425626 -19.6315918 85.60961914 C-18.95130823 82.12298324 -18.28228268 78.63438471 -17.61743164 75.14477539 C-15.72016443 65.1901625 -13.79681945 55.25550145 -11.61279297 45.35961914 C-10.98638791 42.29422289 -10.50020419 39.24546902 -10.05883789 36.14868164 C-8.95185183 28.82213373 -7.45631906 21.60318305 -5.88696289 14.36352539 C-5.48380859 12.46086914 -5.48380859 12.46086914 -5.07250977 10.51977539 C-4.81405273 9.31836914 -4.5555957 8.11696289 -4.28930664 6.87915039 C-4.05590576 5.79408203 -3.82250488 4.70901367 -3.58203125 3.59106445 C-2.70538096 0.15754567 -2.70538096 0.15754567 0 0 Z " fill="#F5F6F6" transform="translate(439.949462890625,441.886474609375)"/>
<path d="M0 0 C6.6 0 13.2 0 20 0 C20.33 23.1 20.66 46.2 21 70 C21.99 67.36 22.98 64.72 24 62 C24.55010742 60.91477051 24.55010742 60.91477051 25.11132812 59.80761719 C26.1963966 57.60051637 26.69242824 55.47935422 27.21875 53.078125 C27.53392578 51.66273438 27.53392578 51.66273438 27.85546875 50.21875 C28.17451172 48.74921875 28.17451172 48.74921875 28.5 47.25 C32.53695058 28.94915737 32.53695058 28.94915737 35.375 21.375 C37.94831179 14.31939141 40.00610345 7.23710598 42 0 C48.6 0 55.2 0 62 0 C62 5.31651762 61.93620198 5.2926028 59 9 C57.91593987 11.71369773 57.91593987 11.71369773 57.0625 14.75 C56.72089844 15.90371094 56.37929688 17.05742187 56.02734375 18.24609375 C55.15741589 21.42480352 54.36011466 24.61021391 53.59912109 27.81640625 C51.92492632 34.86492141 49.80407621 41.51345468 47.14770508 48.25415039 C45.19599256 53.26705516 43.82174087 58.26961589 42.73828125 63.546875 C41.93068091 66.23033011 40.67325064 67.78594735 39 70 C39.08072848 74.11715225 40.06083453 77.30840046 41.80078125 80.97265625 C44.34620602 86.59095683 46.2262703 92.3877623 48.125 98.25 C48.81376198 100.35981364 49.50381981 102.46920477 50.1953125 104.578125 C50.49453613 105.50012695 50.79375977 106.42212891 51.10205078 107.37207031 C51.71092674 109.15400092 52.38403648 110.91501451 53.11279297 112.65136719 C54 115 54 115 54 118 C54.66 118 55.32 118 56 118 C56.33994995 118.89924194 56.33994995 118.89924194 56.68676758 119.81665039 C57.72710431 122.56586551 58.76978431 125.31418633 59.8125 128.0625 C60.16892578 129.00544922 60.52535156 129.94839844 60.89257812 130.91992188 C62.40763153 134.90909919 63.91596472 138.86846477 65.69921875 142.74609375 C67 146 67 146 68 153 C61.07 153 54.14 153 47 153 C45.62162036 149.55405089 44.71854648 147.06766264 44.0625 143.5625 C43.23656244 139.65220188 41.88412007 136.54214574 40 133 C39.18883403 130.97610076 38.43728313 128.93690074 37.6953125 126.88671875 C37.11847826 125.32148877 36.47380977 123.78145422 35.8125 122.25 C35 120 35 120 35 116 C34.34 116 33.68 116 33 116 C32.9175 114.88625 32.835 113.7725 32.75 112.625 C32.01385872 106.68328824 29.53992127 101.48582179 27.140625 96.0546875 C24.55399695 90.16878898 22.9304573 84.35812486 22 78 C21.34 78 20.68 78 20 78 C20 102.75 20 127.5 20 153 C13.4 153 6.8 153 0 153 C0 102.51 0 52.02 0 0 Z " fill="#F3F4F4" transform="translate(524,442)"/>
<path d="M0 0 C17.82 0 35.64 0 54 0 C54 5.94 54 11.88 54 18 C42.78 18 31.56 18 20 18 C20 32.85 20 47.7 20 63 C30.23 63 40.46 63 51 63 C51 69.27 51 75.54 51 82 C40.77 82 30.54 82 20 82 C20 98.83 20 115.66 20 133 C31.88 133 43.76 133 56 133 C56 139.27 56 145.54 56 152 C37.52 152 19.04 152 0 152 C0 101.84 0 51.68 0 0 Z " fill="#F7F8F7" transform="translate(315,443)"/>
<path d="M0 0 C170.28 0 340.56 0 516 0 C516 2.64 516 5.28 516 8 C345.72 8 175.44 8 0 8 C0 5.36 0 2.72 0 0 Z " fill="#E8E8E8" transform="translate(408,876)"/>
<path d="M0 0 C8.58806111 -0.02255359 17.17609936 -0.04091657 25.76418209 -0.05181217 C29.751572 -0.05704036 33.73894067 -0.06413684 37.72631836 -0.07543945 C41.57125114 -0.08627061 45.41616345 -0.09227732 49.26111031 -0.09487724 C50.73118983 -0.09673108 52.20126818 -0.10035091 53.67133904 -0.10573006 C55.72354467 -0.11294355 57.77566467 -0.11399081 59.82788086 -0.11352539 C61.58327431 -0.11685631 61.58327431 -0.11685631 63.37413025 -0.12025452 C66 0 66 0 67 1 C67.08631874 2.34267413 67.10706473 3.68974322 67.09765625 5.03515625 C67.09515869 5.76355713 67.09266113 6.49195801 67.09008789 7.24243164 C67.08098389 8.1730542 67.07187988 9.10367676 67.0625 10.0625 C67.041875 13.011875 67.02125 15.96125 67 19 C59.08 19 51.16 19 43 19 C43 63.22 43 107.44 43 153 C36.4 153 29.8 153 23 153 C23 108.78 23 64.56 23 19 C15.41 19 7.82 19 0 19 C0 12.73 0 6.46 0 0 Z " fill="#FAFBFB" transform="translate(210,442)"/>
<path d="M0 0 C0 0.66 0 1.32 0 2 C0.556875 2.103125 1.11375 2.20625 1.6875 2.3125 C4.65759737 3.19550192 6.55225085 4.05435324 9 6 C10.20349279 8.69582385 11.11297109 11.20493494 12 14 C13.007678 16.6018561 14.01934175 19.20209114 15.03515625 21.80078125 C18.29233293 32.60089339 18.32368851 43.20254122 18.25 54.375 C18.24484879 55.64006882 18.24484879 55.64006882 18.23959351 56.93069458 C18.02250793 102.32097174 18.02250793 102.32097174 5.74609375 117.4609375 C2.92813961 119.9447718 0.28496176 119.96306051 -3.375 120.4375 C-7.25919041 119.9687184 -8.99024514 119.09632454 -11.58203125 116.1640625 C-16.34652171 108.89263629 -18.56286112 100.59706458 -19 92 C-19.66 92 -20.32 92 -21 92 C-21.86358343 81.79866973 -22.24023151 71.67071618 -22.25 61.4375 C-22.25100708 60.69698395 -22.25201416 59.9564679 -22.25305176 59.19351196 C-22.21487343 17.45954629 -22.21487343 17.45954629 -10.51171875 3.45703125 C-7.16243844 0.22891354 -4.54075226 0 0 0 Z " fill="#040408" transform="translate(818,458)"/>
<path d="M0 0 C5.68471383 1.23152379 9.67895852 5.12390563 12.828125 9.8515625 C24.77395023 34.64004669 22.46508419 77.65362581 15.25390625 103.48828125 C13.34689326 108.69902511 10.97929127 113.91446737 6.03515625 116.76953125 C5.44734375 117.00671875 4.85953125 117.24390625 4.25390625 117.48828125 C4.25390625 118.14828125 4.25390625 118.80828125 4.25390625 119.48828125 C0.35519932 119.96567393 -3.20136891 120.2965675 -6.76171875 118.43359375 C-13.96785217 112.637356 -16.31467634 104.67360019 -17.93359375 95.86328125 C-18.10084961 94.97866211 -18.26810547 94.09404297 -18.44042969 93.18261719 C-19.75821353 85.94664246 -20.56946196 78.84793899 -20.74609375 71.48828125 C-20.771875 70.65941406 -20.79765625 69.83054687 -20.82421875 68.9765625 C-21.15786288 57.14887824 -20.78455044 45.50437257 -19.49609375 33.73828125 C-19.3868457 32.6925293 -19.27759766 31.64677734 -19.16503906 30.56933594 C-17.91831854 20.29779864 -15.53839627 10.49971499 -8.74609375 2.48828125 C-5.63921612 0.4170295 -3.71766938 -0.1300842 0 0 Z " fill="#040408" transform="translate(936.74609375,458.51171875)"/>
<path d="M0 0 C11.10171064 0 16.93745031 1.83134169 25 9 C27.98674028 12.44728073 28.31168103 14.42867818 28 19 C28.66 19 29.32 19 30 19 C30.48603703 21.43629884 30.96385629 23.87378565 31.4375 26.3125 C31.57220703 26.98345703 31.70691406 27.65441406 31.84570312 28.34570312 C36.1299281 50.60277433 38.27022606 84.85325329 26 105 C21.56852773 109.75193667 16.32542009 113.41864498 10 115 C6.7 115 3.4 115 0 115 C0 77.05 0 39.1 0 0 Z " fill="#020206" transform="translate(1040,461)"/>
<path d="M0 0 C133.65 0 267.3 0 405 0 C405 2.64 405 5.28 405 8 C271.35 8 137.7 8 0 8 C0 5.36 0 2.72 0 0 Z " fill="#E6E7E8" transform="translate(464,914)"/>
<path d="M0 0 C133.65 0 267.3 0 405 0 C405 2.64 405 5.28 405 8 C271.35 8 137.7 8 0 8 C0 5.36 0 2.72 0 0 Z " fill="#E2E3E5" transform="translate(464,842)"/>
<path d="M0 0 C5.94 0 11.88 0 18 0 C18 49.83 18 99.66 18 151 C12.06 151 6.12 151 0 151 C0 101.17 0 51.34 0 0 Z " fill="#FCFDFD" transform="translate(525,443)"/>
<path d="M0 0 C3.97521886 2.28485553 6.54218476 4.62655429 8 9 C8.74393603 15.86616368 8.02619112 21.2940922 4 27 C3.071875 27.86625 2.14375 28.7325 1.1875 29.625 C-1.29836239 31.79920119 -1.29836239 31.79920119 -1.0625 34.75 C0.32803621 39.00340486 2.09697788 42.94840453 4 47 C4.99 44.03 5.98 41.06 7 38 C9.97 38 12.94 38 16 38 C15.56218418 44.56723734 14.12508223 49.96746059 11.7421875 56.10546875 C10.44762162 61.15427569 11.83938064 65.12173873 14.0625 69.6875 C15.42966576 72.50454261 16 73.81028682 16 77 C12.7 77 9.4 77 6 77 C5.01 74.03 5.01 74.03 4 71 C3.34 71 2.68 71 2 71 C1.67 71.99 1.34 72.98 1 74 C-2.87949338 77.37891359 -6.59591588 77.35246171 -11.5 77.3984375 C-15.74905754 76.72124395 -18.23432513 75.04518008 -20.765625 71.58984375 C-21.25546875 70.71457031 -21.7453125 69.83929687 -22.25 68.9375 C-22.75015625 68.05964844 -23.2503125 67.18179688 -23.765625 66.27734375 C-26.96188004 60.3804555 -26.7235998 54.6273627 -26 48 C-24.16048751 42.70316275 -21.93715586 37.76870752 -17.75390625 33.94921875 C-15.74645803 32.15776733 -15.74645803 32.15776733 -16.01171875 29.74609375 C-16.23472656 28.98425781 -16.45773437 28.22242188 -16.6875 27.4375 C-16.89761719 26.67308594 -17.10773437 25.90867187 -17.32421875 25.12109375 C-17.86945386 23.40974886 -18.43202265 21.70393204 -19 20 C-19.54247125 13.59883929 -18.59379006 9.36103335 -15 4 C-10.91061126 -0.81104557 -5.95805062 -1.25091265 0 0 Z " fill="#F4F4F4" transform="translate(671,631)"/>
<path d="M0 0 C17.75555556 0 17.75555556 0 22.7109375 4.58203125 C28.20288264 10.49940876 28.34139765 16.17046212 28.29296875 24.0546875 C27.86875816 28.31941792 26.46176929 30.524561 24 34 C23.3197633 35.32646156 22.64507739 36.65608877 22 38 C22.5775 38.598125 23.155 39.19625 23.75 39.8125 C28.46170207 46.48741127 30.24373895 54.54610363 32.25 62.375 C32.4253125 63.05280518 32.600625 63.73061035 32.78125 64.42895508 C33.69657013 68.15067257 34 71.10542683 34 75 C30.7 75 27.4 75 24 75 C23.75765625 74.06800781 23.5153125 73.13601563 23.265625 72.17578125 C21.56322212 65.70010262 19.8281176 59.23622002 17.9375 52.8125 C17.63714844 51.78769531 17.33679688 50.76289062 17.02734375 49.70703125 C15.99416049 46.98461301 14.96916348 45.13612497 13 43 C12.01 42.67 11.02 42.34 10 42 C10 52.89 10 63.78 10 75 C6.7 75 3.4 75 0 75 C0 50.25 0 25.5 0 0 Z " fill="#F6F6F6" transform="translate(782,632)"/>
<path d="M0 0 C17.67981439 0 17.67981439 0 22.86328125 4.68359375 C23.34152344 5.26238281 23.81976562 5.84117187 24.3125 6.4375 C24.80363281 7.01371094 25.29476562 7.58992187 25.80078125 8.18359375 C29.18311907 13.30667872 28.43842326 20.12358993 28 26 C26.98238329 30.01432247 25.26949317 33.35326743 22 36 C23.01719817 38.06958337 24.05973177 40.10623066 25.19018555 42.11669922 C28.89055602 48.91470384 30.4680093 55.54295408 31.8125 63.125 C32.13637695 64.84589844 32.13637695 64.84589844 32.46679688 66.6015625 C32.99128823 69.39884974 33.50202555 72.19789298 34 75 C30.7 75 27.4 75 24 75 C23.75765625 74.07960938 23.5153125 73.15921875 23.265625 72.2109375 C22.37464228 68.8457643 21.47483654 65.48321993 20.56884766 62.12207031 C20.19756422 60.73700781 19.82988337 59.35097313 19.46630859 57.96386719 C18.96614903 56.05674318 18.45206331 54.15328825 17.9375 52.25 C17.63714844 51.12078125 17.33679688 49.9915625 17.02734375 48.828125 C16.01423271 46.03918055 15.346293 44.75533142 13 43 C12.01 42.67 11.02 42.34 10 42 C10 52.89 10 63.78 10 75 C6.7 75 3.4 75 0 75 C0 50.25 0 25.5 0 0 Z " fill="#F9F9F9" transform="translate(570,632)"/>
<path d="M0 0 C3.3 0 6.6 0 10 0 C10 11.22 10 22.44 10 34 C14.95 34 19.9 34 25 34 C25 22.78 25 11.56 25 0 C28.3 0 31.6 0 35 0 C35 25.41 35 50.82 35 77 C31.7 77 28.4 77 25 77 C25 65.78 25 54.56 25 43 C20.38 43 15.76 43 11 43 C11 54.22 11 65.44 11 77 C7.37 77 3.74 77 0 77 C0 51.59 0 26.18 0 0 Z " fill="#F0F0F0" transform="translate(466,631)"/>
<path d="M0 0 C3.96 0 7.92 0 12 0 C12.33209473 1.84223145 12.33209473 1.84223145 12.67089844 3.72167969 C13.51144428 8.38152974 14.35450753 13.04092169 15.19824219 17.70019531 C15.55958099 19.69747154 15.92028235 21.69486323 16.28027344 23.69238281 C18.31223523 34.9646625 20.3825569 46.22223548 22.72796631 57.43426514 C23.99944068 63.61451943 24.66798529 69.69172059 25 76 C21.7 76 18.4 76 15 76 C14.34 70.72 13.68 65.44 13 60 C8.38 60 3.76 60 -1 60 C-1.144375 61.340625 -1.28875 62.68125 -1.4375 64.0625 C-1.87981109 68.05593729 -2.4081554 72.02618628 -3 76 C-6.3 76 -9.6 76 -13 76 C-12.47223755 65.97251339 -10.59101148 56.4628971 -8.54833984 46.66308594 C-7.65931865 42.34543538 -6.82506611 38.01776764 -6 33.6875 C-5.83814209 32.83849121 -5.67628418 31.98948242 -5.50952148 31.11474609 C-3.5544248 20.76423426 -1.77607088 10.38245689 0 0 Z " fill="#F2F2F2" transform="translate(383,631)"/>
<path d="M0 0 C3.63 0 7.26 0 11 0 C14.21139723 15.03371528 17.3331144 30.03950652 19.70605469 45.23242188 C20.34123761 49.26048076 21.00653356 53.22096629 22.0390625 57.16796875 C23.03673375 61.14648702 23.61649464 64.93195715 24.125 69 C24.21136719 69.67933594 24.29773438 70.35867188 24.38671875 71.05859375 C24.59544225 72.70519024 24.79835551 74.35252162 25 76 C21.7 76 18.4 76 15 76 C13.515 68.575 13.515 68.575 12 61 C7.71 60.67 3.42 60.34 -1 60 C-1.12375 61.155 -1.2475 62.31 -1.375 63.5 C-1.90278885 67.78350375 -2.88398037 71.83352672 -4 76 C-6.97 76 -9.94 76 -13 76 C-13.18234659 70.07373568 -12.71151209 65.70504029 -11 60 C-10.68346263 58.12903807 -10.39538174 56.25318747 -10.125 54.375 C-9.27975208 48.59033456 -8.23936353 42.86362579 -7.125 37.125 C-5.3980505 28.22814811 -3.81286409 19.3124267 -2.30712891 10.37548828 C-2.15034668 9.45493652 -1.99356445 8.53438477 -1.83203125 7.5859375 C-1.69514893 6.7717334 -1.5582666 5.9575293 -1.41723633 5.11865234 C-1 3 -1 3 0 0 Z " fill="#F2F2F2" transform="translate(844,631)"/>
<path d="M0 0 C2.4375 1.625 2.4375 1.625 4 4 C4.5775 4.825 5.155 5.65 5.75 6.5 C8.15073044 13.22204525 8.04523347 20.51376265 5 27 C4.02763513 28.6829392 3.03435556 30.35443434 2 32 C2.66 32 3.32 32 4 32 C8.74060075 38.37018226 8.61908665 44.23604443 8 52 C7.70858919 53.34311899 7.39404009 54.68332946 7 56 C6.34 56 5.68 56 5 56 C4.7525 56.5775 4.505 57.155 4.25 57.75 C2.72282136 60.49892155 1.55113208 62.12021847 -1 64 C-5.32853794 64.48094866 -7.82662893 64.49542334 -11.8125 62.8125 C-15.9238865 59.40592262 -17.72316785 55.10732859 -19 50 C-19.54791282 43.68222971 -18.99920813 39.08211253 -15.5 33.6875 C-15.005 33.130625 -14.51 32.57375 -14 32 C-13.34 32 -12.68 32 -12 32 C-12.433125 31.278125 -12.86625 30.55625 -13.3125 29.8125 C-13.869375 28.884375 -14.42625 27.95625 -15 27 C-15.52078125 26.23945312 -16.0415625 25.47890625 -16.578125 24.6953125 C-19.04947397 20.01061253 -18.63713118 15.16006243 -18 10 C-16.25 6.5 -16.25 6.5 -14 4 C-13.46375 3.21625 -12.9275 2.4325 -12.375 1.625 C-8.52273546 -1.01075995 -4.51057074 -0.73795648 0 0 Z " fill="#EBEBED" transform="translate(790,744)"/>
<path d="M0 0 C3.3 0 6.6 0 10 0 C12.2111425 8.91689711 13.36128583 17.97453243 14.625 27.0625 C14.8564438 28.70772833 15.08821187 30.35291108 15.3203125 31.99804688 C15.88395092 35.99818181 16.44318818 39.99890935 17 44 C17.07516846 43.44876465 17.15033691 42.8975293 17.2277832 42.32958984 C19.15185547 28.21972656 21.07592773 14.10986328 23 0 C26.63 0 30.26 0 34 0 C33.4406258 6.37686586 32.60152468 12.49944887 31.25 18.75 C29.14749655 28.83966194 27.46445799 38.98645678 25.79711914 49.15576172 C24.32247607 58.13029782 22.75350447 67.07566018 21 76 C18.36 76 15.72 76 13 76 C10.81858386 66.61330026 9.16634631 57.18964869 7.62866211 47.68066406 C6.17111674 38.77382596 4.47577647 29.92217452 2.66259766 21.08105469 C1.26243727 14.06572595 0.44719343 7.13920881 0 0 Z " fill="#F4F4F4" transform="translate(879,632)"/>
<path d="M0 0 C8.91 0 17.82 0 27 0 C27 3.3 27 6.6 27 10 C21.39 10 15.78 10 10 10 C10 17.26 10 24.52 10 32 C15.28 32 20.56 32 26 32 C26 34.97 26 37.94 26 41 C20.72 41 15.44 41 10 41 C10 49.58 10 58.16 10 67 C15.94 67 21.88 67 28 67 C28 70.3 28 73.6 28 77 C18.76 77 9.52 77 0 77 C0 51.59 0 26.18 0 0 Z " fill="#F3F3F4" transform="translate(930,631)"/>
<path d="M0 0 C8.91 0 17.82 0 27 0 C27 2.97 27 5.94 27 9 C21.39 9 15.78 9 10 9 C10 16.26 10 23.52 10 31 C15.28 31 20.56 31 26 31 C26 34.3 26 37.6 26 41 C20.72 41 15.44 41 10 41 C10 49.25 10 57.5 10 66 C15.94 66 21.88 66 28 66 C28 68.97 28 71.94 28 75 C18.76 75 9.52 75 0 75 C0 50.25 0 25.5 0 0 Z " fill="#F6F6F6" transform="translate(325,632)"/>
<path d="M0 0 C8.91 0 17.82 0 27 0 C27 2.97 27 5.94 27 9 C21.06 9 15.12 9 9 9 C9 16.26 9 23.52 9 31 C14.28 31 19.56 31 25 31 C25 33.97 25 36.94 25 40 C19.72 40 14.44 40 9 40 C9 48.58 9 57.16 9 66 C14.94 66 20.88 66 27 66 C27 68.97 27 71.94 27 75 C18.09 75 9.18 75 0 75 C0 50.25 0 25.5 0 0 Z " fill="#FCFCFC" transform="translate(523,632)"/>
<path d="M0 0 C1.7492214 -0.08142927 3.49954542 -0.13938541 5.25 -0.1875 C6.22453125 -0.22230469 7.1990625 -0.25710938 8.203125 -0.29296875 C11.39706651 0.04159216 12.72880304 0.76665633 15 3 C15 3.66 15 4.32 15 5 C15.66 5 16.32 5 17 5 C18.90956205 10.64500017 19.33570081 15.68559377 19.3125 21.625 C19.32861328 22.45773437 19.34472656 23.29046875 19.36132812 24.1484375 C19.36520952 29.02347032 18.94919766 31.9429819 16 36 C15.32741333 38.33163378 14.66152556 40.6652039 14 43 C12.29864174 47.20206157 10.36984633 51.27400536 8.3125 55.3125 C6.8193381 58.1338862 6.8193381 58.1338862 6 62 C3.03 62 0.06 62 -3 62 C-3.25 59.8125 -3.25 59.8125 -3 57 C-2.401875 56.2678125 -1.80375 55.535625 -1.1875 54.78125 C1.29008887 51.63117272 2.76406001 48.36823399 4.25 44.6875 C4.518125 44.04232422 4.78625 43.39714844 5.0625 42.73242188 C5.71561481 41.15794868 6.35884404 39.57938084 7 38 C5.90300781 38.04640625 4.80601562 38.0928125 3.67578125 38.140625 C0 38 0 38 -2.8125 35.75 C-6.97456735 30.51768676 -7.3643092 26.79276833 -7.375 20.25 C-7.39949219 19.4765625 -7.42398438 18.703125 -7.44921875 17.90625 C-7.47930059 11.92999107 -5.98466317 8.16712439 -3 3 C-2.34 3 -1.68 3 -1 3 C-0.67 2.01 -0.34 1.02 0 0 Z " fill="#E7E8E8" transform="translate(721,745)"/>
<path d="M0 0 C5.0709994 3.49335514 6.87353088 8.14236057 8 14 C9.3532671 26.74051462 5.38295542 37.65335537 0 49 C-2.07807279 53.63570083 -3.70135159 58.10509444 -5 63 C-8.3 63 -11.6 63 -15 63 C-14.42559552 59.37486948 -13.46595107 56.66866729 -11.625 53.5 C-11.17769531 52.72140625 -10.73039063 51.9428125 -10.26953125 51.140625 C-9.29776884 49.50208408 -8.30886148 47.87370019 -7.3125 46.25 C-5.94241932 43.90129027 -4.9456406 41.54595546 -4 39 C-5.794375 39.0309375 -5.794375 39.0309375 -7.625 39.0625 C-11.36961411 38.53612186 -13.127604 37.44563045 -15.5 34.5 C-19.80993968 27.16368192 -19.36890282 17.32351095 -17.296875 9.265625 C-13.83926442 1.4713503 -7.9957705 -1.14225293 0 0 Z " fill="#E9EAEA" transform="translate(849,744)"/>
<path d="M0 0 C10.89 0 21.78 0 33 0 C33 2.97 33 5.94 33 9 C29.37 9 25.74 9 22 9 C22 31.11 22 53.22 22 76 C18.37 76 14.74 76 11 76 C11 53.89 11 31.78 11 9 C7.37 9 3.74 9 0 9 C0 6.03 0 3.06 0 0 Z " fill="#F0F0F0" transform="translate(732,632)"/>
<path d="M0 0 C3.3 0 6.6 0 10 0 C11 1 11 1 11.12025452 3.62586975 C11.1169236 5.3812632 11.1169236 5.3812632 11.11352539 7.17211914 C11.11367142 7.81600082 11.11381744 8.45988251 11.1139679 9.12327576 C11.11326885 11.26060303 11.10547691 13.39784413 11.09765625 15.53515625 C11.09579204 17.01346285 11.09436815 18.49177007 11.09336853 19.97007751 C11.08954359 23.86798802 11.07971352 27.76586149 11.06866455 31.66375732 C11.05844992 35.63846333 11.0538708 39.61317529 11.04882812 43.58789062 C11.03809122 51.39194596 11.02049462 59.19596308 11 67 C16.94 67 22.88 67 29 67 C29 70.3 29 73.6 29 77 C19.43 77 9.86 77 0 77 C0 51.59 0 26.18 0 0 Z " fill="#E7E7E8" transform="translate(279,631)"/>
<path d="M0 0 C11.22 0 22.44 0 34 0 C34 3.3 34 6.6 34 10 C30.04 10 26.08 10 22 10 C22 31.78 22 53.56 22 76 C18.7 76 15.4 76 12 76 C12 54.22 12 32.44 12 10 C8.04 10 4.08 10 0 10 C0 6.7 0 3.4 0 0 Z " fill="#F3F3F3" transform="translate(416,631)"/>
<path d="M0 0 C3.63 0 7.26 0 11 0 C11 22.11 11 44.22 11 67 C16.94 67 22.88 67 29 67 C29 69.97 29 72.94 29 76 C19.43 76 9.86 76 0 76 C0 50.92 0 25.84 0 0 Z " fill="#ECECEC" transform="translate(977,631)"/>
<path d="M0 0 C7.59 0 15.18 0 23 0 C23 2.64 23 5.28 23 8 C18.38 8 13.76 8 9 8 C9 13.61 9 19.22 9 25 C13.29 25 17.58 25 22 25 C22 27.64 22 30.28 22 33 C17.71 33 13.42 33 9 33 C9 39.93 9 46.86 9 54 C13.95 54 18.9 54 24 54 C24 56.64 24 59.28 24 62 C16.08 62 8.16 62 0 62 C0 41.54 0 21.08 0 0 Z " fill="#FAFBFC" transform="translate(453,745)"/>
<path d="M0 0 C1.33417969 -0.00386719 1.33417969 -0.00386719 2.6953125 -0.0078125 C4.875 0.125 4.875 0.125 5.875 1.125 C6.01615161 3.79558851 5.91747107 6.44932238 5.875 9.125 C5.16472656 9.11339844 4.45445312 9.10179687 3.72265625 9.08984375 C2.80355469 9.08082031 1.88445313 9.07179688 0.9375 9.0625 C-0.43728516 9.04509766 -0.43728516 9.04509766 -1.83984375 9.02734375 C-4.09093327 8.86550951 -4.09093327 8.86550951 -5.125 10.125 C-5.52073312 15.26953054 -4.98255262 17.89158871 -2.125 22.125 C-1.45958113 23.72200528 -0.7966838 25.3201555 -0.15234375 26.92578125 C0.90713706 29.29133489 0.90713706 29.29133489 2.62109375 32.04296875 C7.06580684 39.52833063 9.32878938 45.37653291 7.875 54.125 C6.37565897 58.5779785 5.0138969 60.71064348 0.875 63.125 C-3.73226563 64.23892771 -7.68835808 64.55599257 -12.25 63.1875 C-14.43460489 60.78443462 -14.40966237 60.07758495 -14.4375 56.9375 C-14.334375 55.679375 -14.23125 54.42125 -14.125 53.125 C-13.58875 53.269375 -13.0525 53.41375 -12.5 53.5625 C-9.0814963 54.37214561 -5.64733727 55.125 -2.125 55.125 C0.15360562 44.87127471 -4.76459067 37.42551067 -9.7578125 28.66796875 C-12.54042003 23.49231875 -13.4616473 19.55751155 -13.5625 13.625 C-13.60246094 12.3359375 -13.64242188 11.046875 -13.68359375 9.71875 C-12.99132176 5.26497214 -11.61827866 3.87448218 -8.125 1.125 C-5.14619115 0.13206372 -3.10898802 -0.00906411 0 0 Z " fill="#E6E6E7" transform="translate(522.125,743.875)"/>
<path d="M0 0 C8.91 0 17.82 0 27 0 C27 2.64 27 5.28 27 8 C24.03 8 21.06 8 18 8 C18 25.82 18 43.64 18 62 C15.03 62 12.06 62 9 62 C9 44.18 9 26.36 9 8 C6.03 8 3.06 8 0 8 C0 5.36 0 2.72 0 0 Z " fill="#E4E4E5" transform="translate(557,745)"/>
<path d="M0 0 C0.33 0 0.66 0 1 0 C2.27568077 6.29233565 3.53749283 12.58734473 4.7902832 18.88427734 C5.216879 21.02031379 5.64649586 23.15574944 6.0793457 25.29052734 C8.42971766 36.89294153 10.53766335 48.14736955 11 60 C4.07 60 -2.86 60 -10 60 C-9.37538423 52.3734414 -8.47256657 44.86517734 -7.25 37.3125 C-6.99428223 35.7183728 -6.99428223 35.7183728 -6.73339844 34.09204102 C-4.85176997 22.65332197 -2.47898762 11.32224036 0 0 Z " fill="#141417" transform="translate(447,483)"/>
<path d="M0 0 C2.64 0 5.28 0 8 0 C8 20.46 8 40.92 8 62 C5.36 62 2.72 62 0 62 C0 41.54 0 21.08 0 0 Z " fill="#F3F4F5" transform="translate(664,745)"/>
<path d="M0 0 C6.6 0 13.2 0 20 0 C20.33 23.1 20.66 46.2 21 70 C21.66 67.69 22.32 65.38 23 63 C24.5625 64.8125 24.5625 64.8125 26 67 C25 70 25 70 23 71 C22.59270772 73.32156597 22.25561323 75.6568787 22 78 C21.34 78 20.68 78 20 78 C20 102.75 20 127.5 20 153 C13.4 153 6.8 153 0 153 C0 102.51 0 52.02 0 0 Z M1 1 C1 50.83 1 100.66 1 152 C6.94 152 12.88 152 19 152 C19 102.17 19 52.34 19 1 C13.06 1 7.12 1 1 1 Z " fill="#A9AAAB" transform="translate(524,442)"/>
<path d="M0 0 C0.66 0.99 1.32 1.98 2 3 C1.01 4.485 1.01 4.485 0 6 C0.99 7.485 0.99 7.485 2 9 C3 11 3 11 2.9375 14.75 C2.87562682 18.51738912 3.59063226 21.47658065 5 25 C7.16874252 24.49396008 8.99967627 24.00016187 11 23 C10.814375 23.78375 10.62875 24.5675 10.4375 25.375 C9.74037734 27.97089775 9.74037734 27.97089775 11 30 C11.99 30 12.98 30 14 30 C14 30.99 14 31.98 14 33 C10.28612182 35.47591878 7.30417439 35.53907468 3 35 C-2.27957289 32.770847 -3.99189545 29.33455791 -6.1875 24.25 C-7.65451614 18.38193543 -7.95465318 12.44278218 -5 7 C-3.5 4.6875 -3.5 4.6875 -2 3 C-1.34 3 -0.68 3 0 3 C0 2.01 0 1.02 0 0 Z " fill="#E2E4E4" transform="translate(778,773)"/>
<path d="M0 0 C7.59 0 15.18 0 23 0 C23 2.64 23 5.28 23 8 C18.38 8 13.76 8 9 8 C9 13.61 9 19.22 9 25 C13.29 25 17.58 25 22 25 C22 27.64 22 30.28 22 33 C17.71 33 13.42 33 9 33 C9 39.93 9 46.86 9 54 C13.95 54 18.9 54 24 54 C24 56.64 24 59.28 24 62 C16.08 62 8.16 62 0 62 C0 41.54 0 21.08 0 0 Z M1 1 C1 20.8 1 40.6 1 61 C7.93 61 14.86 61 22 61 C22 59.02 22 57.04 22 55 C17.38 55 12.76 55 8 55 C8 47.41 8 39.82 8 32 C11.96 32 15.92 32 20 32 C20 30.35 20 28.7 20 27 C16.04 27 12.08 27 8 27 C8 20.4 8 13.8 8 7 C12.62 7 17.24 7 22 7 C22 5.02 22 3.04 22 1 C15.07 1 8.14 1 1 1 Z " fill="#A6A7A9" transform="translate(453,745)"/>
<path d="M0 0 C3.59211489 3.27092561 4.98356245 7.01911334 6.8125 11.4375 C7.14958984 12.20126953 7.48667969 12.96503906 7.83398438 13.75195312 C8.14271484 14.49251953 8.45144531 15.23308594 8.76953125 15.99609375 C9.19649292 17.00434204 9.19649292 17.00434204 9.63208008 18.03295898 C10.12946007 20.69214317 9.49357667 21.78544598 8 24 C4.76746204 26.15502531 3.74849077 26.46856135 0 26 C-3.30082744 23.79944837 -4.09844405 20.74492471 -5 17 C-5.900298 10.60314578 -4.79633747 6.70978089 -1.09375 1.43359375 C-0.7328125 0.96050781 -0.371875 0.48742187 0 0 Z " fill="#0A0A0A" transform="translate(660,672)"/>
<path d="M0 0 C8.5880572 -0.02312635 17.17610149 -0.04091658 25.76418209 -0.05181217 C29.751572 -0.05704036 33.73894067 -0.06413684 37.72631836 -0.07543945 C41.57125114 -0.08627061 45.41616345 -0.09227732 49.26111031 -0.09487724 C50.73118983 -0.09673108 52.20126818 -0.10035091 53.67133904 -0.10573006 C55.72354467 -0.11294355 57.77566467 -0.11399081 59.82788086 -0.11352539 C61.58327431 -0.11685631 61.58327431 -0.11685631 63.37413025 -0.12025452 C66 0 66 0 67 1 C67.08631874 2.34267413 67.10706473 3.68974322 67.09765625 5.03515625 C67.09282227 6.24848633 67.09282227 6.24848633 67.08789062 7.48632812 C67.07532227 8.7615332 67.07532227 8.7615332 67.0625 10.0625 C67.05798828 10.91650391 67.05347656 11.77050781 67.04882812 12.65039062 C67.03700373 14.76695663 67.01906769 16.88348685 67 19 C66.34 19 65.68 19 65 19 C65 13.39 65 7.78 65 2 C43.55 2 22.1 2 0 2 C0 1.34 0 0.68 0 0 Z " fill="#B6B6B8" transform="translate(210,442)"/>
<path d="M0 0 C0.78375 0.04125 1.5675 0.0825 2.375 0.125 C3.91514555 7.05565498 4.44485349 15.25834317 2.375 22.125 C0.395 22.455 -1.585 22.785 -3.625 23.125 C-5.3930198 19.5889604 -4.80964913 15.51928745 -4.8125 11.625 C-4.83086914 10.30435547 -4.83086914 10.30435547 -4.84960938 8.95703125 C-4.85154297 8.11527344 -4.85347656 7.27351562 -4.85546875 6.40625 C-4.85957764 5.63345703 -4.86368652 4.86066406 -4.86791992 4.06445312 C-4.4557794 0.77395634 -3.17910294 0.15138585 0 0 Z " fill="#28292A" transform="translate(727.625,751.875)"/>
<path d="M0 0 C1.875 0.3125 1.875 0.3125 4 1 C6.49617831 4.74426746 6.26063055 7.67375072 6.1875 12 C6.18685547 12.72445312 6.18621094 13.44890625 6.18554688 14.1953125 C6.15907756 17.38339447 6.0144479 19.95665629 5 23 C3.02 23 1.04 23 -1 23 C-2.19960669 19.40117994 -2.16886729 16.41862018 -2.1875 12.625 C-2.20167969 11.31789063 -2.21585938 10.01078125 -2.23046875 8.6640625 C-2.0164804 5.26201037 -1.48144811 3.03316253 0 0 Z " fill="#0E0E10" transform="translate(842,752)"/>
<path d="M0 0 C2.86724686 0.57344937 3.8614515 0.8614515 6 3 C6.3359375 6.15234375 6.3359375 6.15234375 6.375 9.9375 C6.40335938 11.18402344 6.43171875 12.43054688 6.4609375 13.71484375 C6 17 6 17 4.109375 18.9375 C2 20 2 20 -0.125 20.0625 C-2 19 -2 19 -3.25 16.4375 C-4.15686134 12.2810522 -4.40541709 9.25687946 -4 5 C-2 2 -2 2 0 0 Z " fill="#0C0C0D" transform="translate(784,779)"/>
<path d="M0 0 C0.66 0 1.32 0 2 0 C2.67396301 3.56115958 3.33787818 7.12412141 4 10.6875 C4.19078125 11.69490234 4.3815625 12.70230469 4.578125 13.74023438 C4.75859375 14.71669922 4.9390625 15.69316406 5.125 16.69921875 C5.29257812 17.59471436 5.46015625 18.49020996 5.6328125 19.4128418 C6 22 6 22 6 27 C2.7 27 -0.6 27 -4 27 C-2.93170365 17.94221076 -1.78270374 8.95144855 0 0 Z " fill="#0E0E0E" transform="translate(388,654)"/>
<path d="M0 0 C5 1 5 1 6.8125 2.875 C8.95477277 8.51255991 8.95477277 14.48744009 6.8125 20.125 C5 22 5 22 0 23 C0 15.41 0 7.82 0 0 Z " fill="#0B0B0B" transform="translate(792,641)"/>
<path d="M0 0 C6 2 6 2 8 5 C8.265625 7.5234375 8.265625 7.5234375 8.25 10.375 C8.25515625 11.31085937 8.2603125 12.24671875 8.265625 13.2109375 C7.98042847 16.20550105 7.37666742 18.3292652 6 21 C3 23 3 23 0 23 C0 15.41 0 7.82 0 0 Z " fill="#090909" transform="translate(580,641)"/>
<path d="M0 0 C0.33 0 0.66 0 1 0 C1.64760977 3.68719028 2.292767 7.3748057 2.9375 11.0625 C3.21110352 12.62000977 3.21110352 12.62000977 3.49023438 14.20898438 C4.40778546 19.46404969 5.2875741 24.71304991 6 30 C2.7 30 -0.6 30 -4 30 C-3.48612661 19.81113109 -1.90534337 10.0060485 0 0 Z " fill="#0C0C0C" transform="translate(849,651)"/>
<path d="M0 0 C10 0 10 0 14 2 C8.99931969 3.09771031 6.42507684 2.77501098 1 2 C1 38.96 1 75.92 1 114 C7.435 113.505 7.435 113.505 14 113 C10 115 10 115 0 115 C0 77.05 0 39.1 0 0 Z " fill="#29282D" transform="translate(1040,461)"/>
<path d="M0 0 C0.66 0.33 1.32 0.66 2 1 C2.99 0.67 3.98 0.34 5 0 C6.1875 1.5625 6.1875 1.5625 7 4 C5.8125 7.25 5.8125 7.25 4.9375 9.05078125 C3.93116799 11.14311323 3.11441532 13.25922041 2.3125 15.4375 C1.879375 16.613125 1.44625 17.78875 1 19 C-1.97 19 -4.94 19 -8 19 C-8.37433808 15.7245418 -8.31096877 14.39981699 -6.25 11.75 C-5.5075 10.8425 -4.765 9.935 -4 9 C-2.53014067 6.05531561 -1.2471476 3.04489759 0 0 Z " fill="#DFE0E2" transform="translate(726,788)"/>
<path d="M0 0 C2.375 -0.125 2.375 -0.125 5 0 C7.86336371 2.86336371 7.30016187 4.95228346 7.3125 8.9375 C7.32925781 10.18402344 7.34601562 11.43054688 7.36328125 12.71484375 C7 16 7 16 5.6171875 17.9609375 C4 19 4 19 1.8125 18.6875 C1.214375 18.460625 0.61625 18.23375 0 18 C-1.52003714 12.10985609 -1.67407948 5.85927818 0 0 Z " fill="#222224" transform="translate(782,752)"/>
<path d="M0 0 C0.66 0 1.32 0 2 0 C4.44375 6.325 4.44375 6.325 3 10 C2.67 10.66 2.34 11.32 2 12 C1.87962039 14.03160472 1.82260878 16.0670744 1.79467773 18.10205078 C1.77473251 19.38322784 1.75478729 20.66440491 1.73423767 21.98440552 C1.71725331 23.38803994 1.70037451 24.79167563 1.68359375 26.1953125 C1.6630246 27.62735597 1.64202814 29.05939337 1.62062073 30.49142456 C1.56539597 34.26266563 1.51598853 38.03396152 1.46777344 41.80529785 C1.41756133 45.65280036 1.36187376 49.50022313 1.30664062 53.34765625 C1.1990541 60.8983719 1.0981162 68.44915426 1 76 C-5.93 76 -12.86 76 -20 76 C-20 75.67 -20 75.34 -20 75 C-13.4 75 -6.8 75 0 75 C0 50.25 0 25.5 0 0 Z " fill="#2D2D30" transform="translate(544,520)"/>
<path d="M0 0 C1.2375 0.1546875 1.2375 0.1546875 2.5 0.3125 C4.77683768 3.72775652 4.65245214 5.33096837 4.05859375 9.3046875 C3.23842381 12.25271093 1.60068972 14.1440461 -0.5 16.3125 C-1.49 15.9825 -2.48 15.6525 -3.5 15.3125 C-4.57806693 12.48335326 -4.66236156 9.6940574 -4.6875 6.6875 C-4.70167969 5.91148437 -4.71585938 5.13546875 -4.73046875 4.3359375 C-4.36202206 1.10110046 -3.12394525 0.39049316 0 0 Z " fill="#0E0E0E" transform="translate(666.5,638.6875)"/>
<path d="M0 0 C6.93 0 13.86 0 21 0 C22.42910833 4.287325 23.27673339 7.07971175 23.625 11.375 C23.69976563 12.24898438 23.77453125 13.12296875 23.8515625 14.0234375 C23.92503906 15.00183594 23.92503906 15.00183594 24 16 C23.34 16 22.68 16 22 16 C21.34 11.38 20.68 6.76 20 2 C14.06 2 8.12 2 2 2 C2.66 7.61 3.32 13.22 4 19 C3.34 19 2.68 19 2 19 C1.65477873 17.52356259 1.32462513 16.04360218 1 14.5625 C0.814375 13.73878906 0.62875 12.91507812 0.4375 12.06640625 C-0.130979 8.08197752 0 4.02477834 0 0 Z " fill="#C1C2C2" transform="translate(616,442)"/>
<path d="M0 0 C3.0625 0.25 3.0625 0.25 6.0625 2.25 C5.7325 4.89 5.4025 7.53 5.0625 10.25 C-0.22051887 11.57075472 -0.22051887 11.57075472 -3.3125 10.1875 C-4.9375 8.25 -4.9375 8.25 -5.3125 5.1875 C-4.79964286 1.1701191 -4.05178058 0.34483239 0 0 Z " fill="#D0D1D1" transform="translate(617.9375,796.75)"/>
<path d="M0 0 C0.99 0 1.98 0 3 0 C3 1.98 3 3.96 3 6 C3.33 6 3.66 6 4 6 C4 9.3 4 12.6 4 16 C2.02 16 0.04 16 -2 16 C-2.05384521 13.70858714 -2.09272087 11.41681812 -2.125 9.125 C-2.14820313 7.84882812 -2.17140625 6.57265625 -2.1953125 5.2578125 C-2 2 -2 2 0 0 Z " fill="#040307" transform="translate(726,753)"/>
<path d="M0 0 C0.33 0.99 0.66 1.98 1 3 C2.2065625 2.7215625 2.2065625 2.7215625 3.4375 2.4375 C4.7059375 2.2209375 4.7059375 2.2209375 6 2 C7 3 7 3 7.0625 6.0625 C7.041875 7.031875 7.02125 8.00125 7 9 C3.7 9 0.4 9 -3 9 C-2.44271087 5.65626525 -1.64826111 2.96687001 0 0 Z " fill="#BEBFC0" transform="translate(837,798)"/>
<path d="M0 0 C9.24 0 18.48 0 28 0 C28.33 1.65 28.66 3.3 29 5 C28.67 4.01 28.34 3.02 28 2 C18.76 2.33 9.52 2.66 0 3 C0 2.01 0 1.02 0 0 Z " fill="#3D3D3F" transform="translate(433,561)"/>
<path d="M0 0 C0.66 0.33 1.32 0.66 2 1 C2.8515625 3.765625 2.8515625 3.765625 3.625 7.25 C3.88539063 8.38953125 4.14578125 9.5290625 4.4140625 10.703125 C4.92342234 13.56912304 5.11982739 16.10235596 5 19 C2.23776722 16.23776722 2.42143709 13.79293383 2 10 C-0.0245738 11.93254772 -1.42105792 13.63158688 -3 16 C-2.40984815 10.49191603 -1.43336231 5.35121931 0 0 Z " fill="#3C3E3E" transform="translate(682,498)"/>
<path d="M0 0 C6.93 0 13.86 0 21 0 C21 0.33 21 0.66 21 1 C14.4 1 7.8 1 1 1 C1.495 3.2275 1.99 5.455 2.5 7.75 C3.37091156 11.66910202 4 14.97574003 4 19 C3.34 19 2.68 19 2 19 C1.65477873 17.52356259 1.32462513 16.04360218 1 14.5625 C0.814375 13.73878906 0.62875 12.91507812 0.4375 12.06640625 C-0.130979 8.08197752 0 4.02477834 0 0 Z " fill="#7A7A7C" transform="translate(616,442)"/>
<path d="M0 0 C1.5625 1.8125 1.5625 1.8125 3 4 C2 7 2 7 0 8 C-0.40729228 10.32156597 -0.74438677 12.6568787 -1 15 C-1.66 15 -2.32 15 -3 15 C-3 20.28 -3 25.56 -3 31 C-3.33 31 -3.66 31 -4 31 C-4 24.4 -4 17.8 -4 11 C-3.34 11 -2.68 11 -2 11 C-1.855625 9.9275 -1.71125 8.855 -1.5625 7.75 C-1.16250558 5.08337051 -0.72408076 2.58600271 0 0 Z " fill="#A7ABAA" transform="translate(547,505)"/>
<path d="M0 0 C0.9867097 3.11074833 0.96838493 5.16442757 0.22265625 8.328125 C0.03896484 9.12734375 -0.14472656 9.9265625 -0.33398438 10.75 C-0.53314453 11.575 -0.73230469 12.4 -0.9375 13.25 C-1.13279297 14.09046875 -1.32808594 14.9309375 -1.52929688 15.796875 C-2.01142286 17.86648898 -2.50463863 19.93351395 -3 22 C-3.66 22 -4.32 22 -5 22 C-5.33 18.37 -5.66 14.74 -6 11 C-5.34 11.66 -4.68 12.32 -4 13 C-3.87882813 12.39671875 -3.75765625 11.7934375 -3.6328125 11.171875 C-3.46523438 10.37265625 -3.29765625 9.5734375 -3.125 8.75 C-2.88136719 7.56664062 -2.88136719 7.56664062 -2.6328125 6.359375 C-2.00849925 4.03168856 -1.15161458 2.10968048 0 0 Z " fill="#3D3E3E" transform="translate(659,520)"/>
<path d="M0 0 C1.01873881 3.81609538 1.41803177 7.02869816 1 11 C-1.62451154 14.20773633 -4.6194173 16.62107143 -8 19 C-8.66 18.67 -9.32 18.34 -10 18 C-9.23300781 17.48953125 -8.46601562 16.9790625 -7.67578125 16.453125 C-4.39224397 13.44281637 -3.55229086 10.96135466 -2.1875 6.75 C-1.86362305 5.77546875 -1.86362305 5.77546875 -1.53320312 4.78125 C-1.00744308 3.1922863 -0.50164945 1.59673952 0 0 Z " fill="#BDBDBE" transform="translate(1070,552)"/>
<path d="M0 0 C2.47923801 -0.02685095 4.9581884 -0.04676547 7.4375 -0.0625 C8.14455078 -0.07087891 8.85160156 -0.07925781 9.58007812 -0.08789062 C11.38693559 -0.09653588 13.19387603 -0.05220011 15 0 C16 1 16 1 16.09765625 3.06640625 C16.08605469 3.89011719 16.07445312 4.71382813 16.0625 5.5625 C16.05347656 6.38878906 16.04445313 7.21507812 16.03515625 8.06640625 C16.02355469 8.70449219 16.01195312 9.34257812 16 10 C15.67 10 15.34 10 15 10 C14.67 7.36 14.34 4.72 14 2 C9.71 2 5.42 2 1 2 C0.67 2.99 0.34 3.98 0 5 C0 3.35 0 1.7 0 0 Z " fill="#B4B4B6" transform="translate(675,442)"/>
<path d="M0 0 C0.33 0 0.66 0 1 0 C1.05451714 2.04136395 1.09302485 4.08315856 1.125 6.125 C1.14820313 7.26195312 1.17140625 8.39890625 1.1953125 9.5703125 C0.99576216 13.07441649 0.2388869 15.73384362 -1 19 C-1.34976758 20.32911682 -1.69096017 21.66082739 -2 23 C-2.66 23 -3.32 23 -4 23 C-3.32545897 15.1753241 -1.73123042 7.65443386 0 0 Z " fill="#BEBFC1" transform="translate(427,494)"/>
<path d="M0 0 C2.8992226 0.46761655 3.86675182 0.86675182 6 3 C6.1953125 6.2578125 6.1953125 6.2578125 6.125 10.125 C6.10695313 11.40632812 6.08890625 12.68765625 6.0703125 14.0078125 C6.04710937 14.99523437 6.02390625 15.98265625 6 17 C5.34 17 4.68 17 4 17 C3.67 12.38 3.34 7.76 3 3 C2.34 3.66 1.68 4.32 1 5 C0.34 3.68 -0.32 2.36 -1 1 C-0.67 0.67 -0.34 0.34 0 0 Z " fill="#3D3D3E" transform="translate(784,779)"/>
<path d="M0 0 C0.33 0 0.66 0 1 0 C1.0272415 1.41655793 1.04650467 2.83327045 1.0625 4.25 C1.07410156 5.03890625 1.08570313 5.8278125 1.09765625 6.640625 C1 9 1 9 0 13 C-5.61 13 -11.22 13 -17 13 C-16.67 11.68 -16.34 10.36 -16 9 C-16 9.99 -16 10.98 -16 12 C-11.38 12 -6.76 12 -2 12 C-1.855625 10.7625 -1.71125 9.525 -1.5625 8.25 C-1.21311498 5.43495501 -0.79620634 2.7298503 0 0 Z " fill="#5E5F60" transform="translate(719,584)"/>
<path d="M0 0 C0.33 0 0.66 0 1 0 C2.50974035 7.09038772 3.28307925 13.75002578 3 21 C2.34 21 1.68 21 1 21 C0.06145994 13.96094956 -0.10808032 7.09727428 0 0 Z " fill="#4C4E4F" transform="translate(833,483)"/>
<path d="M0 0 C1.58565894 4.01969591 0.37579126 7.10244515 -0.8125 11.125 C-1.34810547 12.98511719 -1.34810547 12.98511719 -1.89453125 14.8828125 C-3 18 -3 18 -5 20 C-4.67 18.02 -4.34 16.04 -4 14 C-4.66 14 -5.32 14 -6 14 C-5.67 13.01 -5.34 12.02 -5 11 C-4.34 11 -3.68 11 -3 11 C-2.87625 10.29875 -2.7525 9.5975 -2.625 8.875 C-1.96161655 5.82343613 -1.02788045 2.94659062 0 0 Z " fill="#6B6C6E" transform="translate(553,484)"/>
<path d="M0 0 C0.90105469 0.00902344 1.80210937 0.01804687 2.73046875 0.02734375 C3.41753906 0.03894531 4.10460937 0.05054688 4.8125 0.0625 C5.1425 0.7225 5.4725 1.3825 5.8125 2.0625 C4.79929687 1.99289062 4.79929687 1.99289062 3.765625 1.921875 C-1.84231744 1.5168127 -1.84231744 1.5168127 -6.625 4 C-7.140625 4.680625 -7.65625 5.36125 -8.1875 6.0625 C-9.1775 6.3925 -10.1675 6.7225 -11.1875 7.0625 C-11.8475 8.0525 -12.5075 9.0425 -13.1875 10.0625 C-12.70903935 5.75635411 -11.52823619 3.81369451 -8.1875 1.0625 C-5.17259443 0.05753148 -3.14568308 -0.04085303 0 0 Z " fill="#9C9D9F" transform="translate(522.1875,743.9375)"/>
<path d="M0 0 C2.05078125 0.03255208 4.1015625 0.06510417 6.15234375 0.09765625 C6.15234375 0.42765625 6.15234375 0.75765625 6.15234375 1.09765625 C3.84234375 1.09765625 1.53234375 1.09765625 -0.84765625 1.09765625 C-1.09515625 1.71640625 -1.34265625 2.33515625 -1.59765625 2.97265625 C-3.05394264 5.44834312 -4.22578131 6.04890627 -6.84765625 7.09765625 C-6.84765625 8.08765625 -6.84765625 9.07765625 -6.84765625 10.09765625 C-7.83765625 10.42765625 -8.82765625 10.75765625 -9.84765625 11.09765625 C-8.45132197 6.65477444 -6.24363797 4.23240861 -2.84765625 1.09765625 C-1.84765625 0.09765625 -1.84765625 0.09765625 0 0 Z " fill="#46464A" transform="translate(932.84765625,458.90234375)"/>
<path d="M0 0 C0 0.99 0 1.98 0 3 C0.061875 3.825 0.12375 4.65 0.1875 5.5 C-0.04190654 8.55875385 -0.76657041 9.02427382 -3 11 C-4.17574711 13.09989652 -4.17574711 13.09989652 -5 15 C-5.89234179 12.51053693 -6.08442558 11.27333365 -5.29296875 8.7109375 C-4.92816406 7.94007813 -4.56335938 7.16921875 -4.1875 6.375 C-3.83042969 5.59898437 -3.47335937 4.82296875 -3.10546875 4.0234375 C-2 2 -2 2 0 0 Z " fill="#B7B8BA" transform="translate(909,456)"/>
<path d="M0 0 C-0.845625 0.37125 -1.69125 0.7425 -2.5625 1.125 C-6.54683878 3.2982757 -9.66636184 5.95238405 -13 9 C-13 5.00523669 -11.71130915 3.8578664 -9 1 C-5.63069948 -0.85311529 -3.63422304 -1.34600853 0 0 Z " fill="#59595A" transform="translate(818,459)"/>
<path d="M0 0 C0.33 0 0.66 0 1 0 C1.144375 0.9075 1.28875 1.815 1.4375 2.75 C1.86409473 5.21476956 2.35074221 7.58847107 3 10 C2.34 10 1.68 10 1 10 C0.87625 10.94875 0.7525 11.8975 0.625 12.875 C0 16 0 16 -2 18 C-1.34 12.06 -0.68 6.12 0 0 Z " fill="#C0C2C2" transform="translate(955,536)"/>
<path d="M0 0 C1.79341438 4.16673521 0.01173384 7.74663341 -1.4375 11.75 C-1.68048828 12.44738281 -1.92347656 13.14476562 -2.17382812 13.86328125 C-2.77310248 15.57885098 -3.38529885 17.28989715 -4 19 C-5.86826371 12.43968468 -3.93401074 7.30684577 -0.83984375 1.50390625 C-0.56269531 1.00761719 -0.28554688 0.51132812 0 0 Z " fill="#6E6F6F" transform="translate(565,443)"/>
<path d="M0 0 C0.99 0.33 1.98 0.66 3 1 C3 1.99 3 2.98 3 4 C3.66 4 4.32 4 5 4 C5.33 3.34 5.66 2.68 6 2 C6.33 3.32 6.66 4.64 7 6 C6.34 6 5.68 6 5 6 C5.350625 6.7425 5.70125 7.485 6.0625 8.25 C7.0720098 11.21122875 6.87980884 12.12062561 6 15 C5.32404685 13.58774074 4.65959941 12.16997095 4 10.75 C3.62875 9.96109375 3.2575 9.1721875 2.875 8.359375 C2 6 2 6 2 2 C1.34 2 0.68 2 0 2 C0 1.34 0 0.68 0 0 Z " fill="#575958" transform="translate(1081,462)"/>
<path d="M0 0 C1.58294782 -0.05437607 3.16644256 -0.09296271 4.75 -0.125 C5.63171875 -0.14820313 6.5134375 -0.17140625 7.421875 -0.1953125 C10.1135858 0.00860498 11.69904974 0.63448279 14 2 C9.37078475 3.0161692 5.65537393 2.83796731 1 2 C1 3.65 1 5.3 1 7 C0.67 7 0.34 7 0 7 C0 4.69 0 2.38 0 0 Z " fill="#444444" transform="translate(1040,461)"/>
<path d="M0 0 C0.66 0 1.32 0 2 0 C1.71905418 1.8141927 1.42493567 3.62635001 1.125 5.4375 C0.88136719 6.95150391 0.88136719 6.95150391 0.6328125 8.49609375 C0.42398438 9.32238281 0.21515625 10.14867187 0 11 C-0.99 11.495 -0.99 11.495 -2 12 C-2.05395478 10.37536158 -2.09277195 8.75021459 -2.125 7.125 C-2.14820313 6.22007812 -2.17140625 5.31515625 -2.1953125 4.3828125 C-2 2 -2 2 0 0 Z " fill="#0C0D0F" transform="translate(547,498)"/>
<path d="M0 0 C0.33 0 0.66 0 1 0 C1.64894237 2.06152389 2.2940264 4.12426258 2.9375 6.1875 C3.29714844 7.33605469 3.65679688 8.48460937 4.02734375 9.66796875 C4.83756036 12.44353006 5.49134307 15.15687548 6 18 C2.84766242 16.42383121 2.18000248 13.64239462 0.8203125 10.5 C-0.3818177 6.8363651 -0.27834468 3.82723938 0 0 Z " fill="#454548" transform="translate(778,553)"/>
<path d="M0 0 C0.33 0 0.66 0 1 0 C0.67 5.94 0.34 11.88 0 18 C-0.33 18 -0.66 18 -1 18 C-1.06058594 17.15695312 -1.12117187 16.31390625 -1.18359375 15.4453125 C-1.26738281 14.34960938 -1.35117187 13.25390625 -1.4375 12.125 C-1.51871094 11.03445313 -1.59992187 9.94390625 -1.68359375 8.8203125 C-1.83001703 6.05271029 -1.83001703 6.05271029 -3 4 C-2.02727325 2.64664105 -1.0260734 1.31337396 0 0 Z " fill="#C3C4C5" transform="translate(917,488)"/>
<path d="M0 0 C0.99 0 1.98 0 3 0 C2.57405412 1.44096586 2.13373367 2.87768712 1.6875 4.3125 C1.44386719 5.11300781 1.20023438 5.91351562 0.94921875 6.73828125 C-0.04182023 9.09964573 -1.08074943 10.33879993 -3 12 C-2.67 10.02 -2.34 8.04 -2 6 C-1.34 6 -0.68 6 0 6 C-0.2784375 4.7934375 -0.2784375 4.7934375 -0.5625 3.5625 C-0.706875 2.716875 -0.85125 1.87125 -1 1 C-0.67 0.67 -0.34 0.34 0 0 Z " fill="#3A3A3C" transform="translate(723,788)"/>
<path d="M0 0 C0.99 0.66 1.98 1.32 3 2 C1.35 3.65 -0.3 5.3 -2 7 C-2.66 6.34 -3.32 5.68 -4 5 C-3 2 -3 2 0 0 Z " fill="#E9ECEE" transform="translate(1076,576)"/>
<path d="M0 0 C0.66 0.99 1.32 1.98 2 3 C2.66 3.33 3.32 3.66 4 4 C3.34 5.98 2.68 7.96 2 10 C0.4375 8.9375 0.4375 8.9375 -1 7 C-0.6875 3.3125 -0.6875 3.3125 0 0 Z " fill="#414342" transform="translate(563,510)"/>
<path d="M0 0 C2.98479194 4.47718792 4 8.63824093 4 14 C3.34 14 2.68 14 2 14 C1.66179834 12.4176994 1.32964061 10.83410625 1 9.25 C0.814375 8.36828125 0.62875 7.4865625 0.4375 6.578125 C0 4 0 4 0 0 Z " fill="#48484A" transform="translate(616,447)"/>
<path d="M0 0 C0.66 0.33 1.32 0.66 2 1 C1.21718695 2.33855056 0.42348123 3.67073644 -0.375 5 C-0.81585937 5.7425 -1.25671875 6.485 -1.7109375 7.25 C-2.34902344 8.11625 -2.34902344 8.11625 -3 9 C-3.66 9 -4.32 9 -5 9 C-4.34 7.02 -3.68 5.04 -3 3 C-2.34 3 -1.68 3 -1 3 C-0.67 2.01 -0.34 1.02 0 0 Z " fill="#C3C3C6" transform="translate(721,745)"/>
<path d="M0 0 C1.5625 1.8125 1.5625 1.8125 3 4 C2 7 2 7 0 8 C-0.40729228 10.32156597 -0.74438677 12.6568787 -1 15 C-1.33 15 -1.66 15 -2 15 C-2.19392201 9.47322267 -1.7479503 5.24385089 0 0 Z " fill="#C1C4C3" transform="translate(547,505)"/>
<path d="M0 0 C0.33 0 0.66 0 1 0 C3.29612756 9.41002278 3.29612756 9.41002278 3 14 C1.29159719 12.36587557 0.06546953 11.13093906 -1 9 C-0.91348369 7.45386986 -0.75997364 5.91090613 -0.5625 4.375 C-0.46066406 3.55773437 -0.35882812 2.74046875 -0.25390625 1.8984375 C-0.17011719 1.27195312 -0.08632813 0.64546875 0 0 Z " fill="#B7B8BA" transform="translate(693,461)"/>
<path d="M0 0 C1.875 0.3125 1.875 0.3125 4 1 C6 4 6 4 6 7 C5.34 7 4.68 7 4 7 C4 5.68 4 4.36 4 3 C2.35 3.33 0.7 3.66 -1 4 C-0.67 2.68 -0.34 1.36 0 0 Z " fill="#272828" transform="translate(842,752)"/>
<path d="M0 0 C0.53625 0.2475 1.0725 0.495 1.625 0.75 C0.635 0.75 -0.355 0.75 -1.375 0.75 C-1.375 1.41 -1.375 2.07 -1.375 2.75 C-3.00126404 4.13232443 -4.6675002 5.46937515 -6.375 6.75 C-6.375 6.09 -6.375 5.43 -6.375 4.75 C-7.035 4.42 -7.695 4.09 -8.375 3.75 C-2.95961538 -0.31153846 -2.95961538 -0.31153846 0 0 Z " fill="#ADADAE" transform="translate(927.375,441.25)"/>
<path d="M0 0 C0.33 0.66 0.66 1.32 1 2 C-0.25 4.5625 -0.25 4.5625 -2 7 C-2.99 7.33 -3.98 7.66 -5 8 C-3.8141763 4.62496331 -2.72426311 2.35277269 0 0 Z " fill="#BABCBC" transform="translate(915,448)"/>
<path d="M0 0 C0 2 0 4 0 6 C-0.99 6.66 -1.98 7.32 -3 8 C-3.99 7.67 -4.98 7.34 -6 7 C-4.02 4.69 -2.04 2.38 0 0 Z " fill="#404144" transform="translate(1080,576)"/>
<path d="M0 0 C0.66 0.33 1.32 0.66 2 1 C1.67 2.32 1.34 3.64 1 5 C0.34 5 -0.32 5 -1 5 C-1.33 6.32 -1.66 7.64 -2 9 C-2.125 5.625 -2.125 5.625 -2 2 C-1.34 1.34 -0.68 0.68 0 0 Z " fill="#131415" transform="translate(519,753)"/>
<path d="M0 0 C0.99 0.66 1.98 1.32 3 2 C3 2.99 3 3.98 3 5 C0.5 7.1875 0.5 7.1875 -2 9 C-1.34 6.03 -0.68 3.06 0 0 Z " fill="#CECFCF" transform="translate(833,553)"/>
<path d="M0 0 C0.33 0 0.66 0 1 0 C1.33 3.63 1.66 7.26 2 11 C1.01 11 0.02 11 -1 11 C-0.67 7.37 -0.34 3.74 0 0 Z " fill="#ACACAF" transform="translate(422,517)"/>
</svg>
